<?xml version="1.0" encoding="UTF-8"?>
<svg xmlns="http://www.w3.org/2000/svg" xmlns:xlink="http://www.w3.org/1999/xlink" viewBox="0 0 90 90" width="90px" height="90px">
<g id="surface85062365">
<path style=" stroke:none;fill-rule:nonzero;fill:rgb(53.725493%,37.64706%,98.823529%);fill-opacity:1;" d="M 8.550781 90 C 3.828125 90 0 86.171875 0 81.449219 L 0 8.550781 C 0 3.828125 3.828125 0 8.550781 0 L 81.449219 0 C 86.171875 0 90 3.828125 90 8.550781 L 90 81.449219 C 90 86.171875 86.171875 90 81.449219 90 Z M 8.550781 90 "/>
<path style=" stroke:none;fill-rule:nonzero;fill:rgb(100%,100%,100%);fill-opacity:1;" d="M 22.382812 11.917969 C 21.664062 11.90625 20.96875 12.1875 20.457031 12.699219 C 19.417969 13.742188 19.417969 15.433594 20.457031 16.472656 C 21.5 17.515625 23.191406 17.515625 24.234375 16.472656 C 25.277344 15.433594 25.277344 13.742188 24.234375 12.699219 C 23.742188 12.207031 23.078125 11.925781 22.382812 11.917969 Z M 67.695312 11.917969 C 66.972656 11.90625 66.277344 12.1875 65.765625 12.699219 C 64.722656 13.742188 64.722656 15.433594 65.765625 16.472656 C 66.808594 17.515625 68.5 17.515625 69.542969 16.472656 C 70.582031 15.433594 70.582031 13.742188 69.542969 12.699219 C 69.050781 12.207031 68.386719 11.929688 67.695312 11.917969 Z M 45 13.210938 C 31.726562 13.210938 20.96875 23.96875 20.96875 37.238281 C 20.96875 50.589844 31.648438 55.929688 36.988281 66.609375 L 53.011719 66.609375 C 58.351562 55.929688 69.03125 50.589844 69.03125 37.238281 C 69.03125 23.96875 58.273438 13.210938 45 13.210938 Z M 45 21.21875 L 45 34.570312 L 55.679688 34.570312 L 45 53.261719 L 45 39.910156 L 34.320312 39.910156 Z M 12.960938 34.570312 C 11.484375 34.570312 10.289062 35.765625 10.289062 37.238281 C 10.289062 38.714844 11.484375 39.910156 12.960938 39.910156 C 14.433594 39.910156 15.628906 38.714844 15.628906 37.238281 C 15.628906 35.765625 14.433594 34.570312 12.960938 34.570312 Z M 77.039062 34.570312 C 75.566406 34.570312 74.371094 35.765625 74.371094 37.238281 C 74.371094 38.714844 75.566406 39.910156 77.039062 39.910156 C 78.515625 39.910156 79.710938 38.714844 79.710938 37.238281 C 79.710938 35.765625 78.515625 34.570312 77.039062 34.570312 Z M 22.382812 57.222656 C 21.660156 57.210938 20.964844 57.496094 20.453125 58.003906 C 19.410156 59.046875 19.410156 60.738281 20.453125 61.78125 C 20.953125 62.285156 21.636719 62.566406 22.34375 62.566406 C 23.054688 62.566406 23.734375 62.285156 24.234375 61.78125 C 25.277344 60.738281 25.277344 59.046875 24.234375 58.003906 C 23.742188 57.511719 23.078125 57.234375 22.382812 57.222656 Z M 67.691406 57.230469 C 66.96875 57.21875 66.277344 57.496094 65.765625 58.003906 C 65.261719 58.507812 64.980469 59.1875 64.980469 59.894531 C 64.980469 60.605469 65.261719 61.285156 65.765625 61.785156 C 66.808594 62.828125 68.5 62.828125 69.542969 61.785156 C 70.042969 61.285156 70.324219 60.605469 70.324219 59.894531 C 70.324219 59.1875 70.042969 58.507812 69.542969 58.003906 C 69.046875 57.515625 68.382812 57.238281 67.691406 57.230469 Z M 36.988281 71.949219 L 36.988281 74.621094 C 36.988281 77.570312 39.378906 79.960938 42.328125 79.960938 C 42.328125 81.433594 43.527344 82.628906 45 82.628906 C 46.472656 82.628906 47.671875 81.433594 47.671875 79.960938 C 50.621094 79.960938 53.011719 77.570312 53.011719 74.621094 L 53.011719 71.949219 Z M 36.988281 71.949219 "/>
</g>
</svg>
